<mxfile host="app.diagrams.net" modified="2024-07-27T11:28:20.049Z" agent="Mozilla/5.0 (Windows NT 10.0; Win64; x64) AppleWebKit/537.36 (KHTML, like Gecko) Chrome/126.0.0.0 Safari/537.36" version="24.6.2" etag="qSxH9K2JqxxPik9UwXs3" type="github">
  <diagram name="Page-1" id="w_E6ruiKTN7FKgpmFSiB">
    <mxGraphModel>
      <root>
        <mxCell id="0" />
        <mxCell id="1" parent="0" />
      </root>
    </mxGraphModel>
  </diagram>
</mxfile>
